<svg width="60" height="60" viewBox="0 0 60 60" fill="none" xmlns="http://www.w3.org/2000/svg">
<g clip-path="url(#clip0_1746_10924)">
<path fill-rule="evenodd" clip-rule="evenodd" d="M34.0511 7.90461C39.5574 2.62509 42.3105 -0.0148066 44.0835 1.00971C45.8565 2.03423 44.9442 5.73776 43.1199 13.1447L43.0608 13.385C42.5232 15.5679 42.2544 16.6595 42.7154 17.564C43.1764 18.4684 44.2175 18.8923 46.2997 19.7398L52.1322 22.1138C57.4008 24.2583 60.0352 25.3306 60.0352 27.1646C60.0351 28.9985 57.4008 30.0707 52.1322 32.2152L45.889 34.7564C43.9896 35.5295 43.0399 35.9162 42.5727 36.7326C42.1054 37.5489 42.2533 38.5636 42.5487 40.5929L43.2923 45.7003C44.4797 53.8561 45.0733 57.9341 43.1454 58.7588C41.2174 59.5833 38.6786 56.3373 33.6009 49.8456L31.7442 47.4719C30.1243 45.4009 29.3143 44.3654 28.172 44.2401C27.0298 44.1148 26.0146 44.9501 23.9844 46.6205L22.9251 47.4921C15.2711 53.7892 11.4441 56.9376 9.72038 55.584C9.71231 55.5777 9.70419 55.5714 9.69619 55.565C7.98795 54.192 10.1895 49.752 14.5923 40.8723C15.65 38.7392 16.1788 37.6726 15.8826 36.6527L15.878 36.6365C15.5755 35.6184 14.5537 35.0073 12.5104 33.785L8.76804 31.5464C2.93323 28.0562 0.0159516 26.311 0.0352514 24.7427C0.04163 24.2246 0.195416 23.7189 0.478803 23.2851C1.33658 21.9721 4.73157 22.1485 11.5214 22.5012C14.1826 22.6394 15.5134 22.7085 16.3302 22.0372C16.6129 21.8048 16.8458 21.5178 17.0153 21.1934C17.5049 20.2564 17.1646 18.9682 16.4839 16.392L15.9847 14.5022C14.0442 7.15825 13.0739 3.48617 14.53 2.38274C14.7342 2.22805 14.9592 2.10277 15.1983 2.01086C16.9037 1.35534 19.5121 4.11622 24.7288 9.63776C26.3117 11.3132 27.1032 12.1507 28.1004 12.2596C28.2523 12.2762 28.4053 12.28 28.5579 12.2709C29.5592 12.2114 30.391 11.4137 32.0546 9.8186L34.0511 7.90461ZM34.9992 22.6718C32.7531 20.7611 29.0207 21.4592 26.6628 24.231C24.3048 27.0029 24.2143 30.7988 26.4604 32.7095C28.7065 34.6202 32.6413 34.9351 34.9992 32.1632C37.3572 29.3914 37.2453 24.5826 34.9992 22.6718Z" fill="#0A0A0A"/>
</g>
<defs>
<clipPath id="clip0_1746_10924">
<rect width="60" height="60" fill="white"/>
</clipPath>
</defs>
</svg>
