<svg width="60" height="60" viewBox="0 0 60 60" fill="none" xmlns="http://www.w3.org/2000/svg">
<path fill-rule="evenodd" clip-rule="evenodd" d="M40.7991 1.76596C42.7697 -0.112099 45.986 1.73531 45.3331 4.37022L42.4637 15.9502C42.14 17.2564 42.8295 18.601 44.0831 19.1082L58.3016 24.861C60.5661 25.7773 60.5661 28.9644 58.3016 29.8807L43.8777 35.7167C42.7162 36.1866 42.0271 37.3834 42.2077 38.6169L44.7376 55.8903C45.1403 58.64 41.6149 60.1389 39.8925 57.9503L29.9903 45.3665C29.0465 44.167 27.2939 43.9758 26.1108 44.9433L13.1063 55.5782C10.8369 57.4342 7.62627 54.8989 8.93176 52.2817L15.6764 38.7605C16.3083 37.4937 15.8542 35.9569 14.6334 35.2311L1.33273 27.3228C-1.10632 25.8725 0.0354393 22.1443 2.87379 22.2909L14.4271 22.8874C16.2722 22.9826 17.6761 21.2646 17.2042 19.489L13.5101 5.59241C12.7885 2.87724 16.1875 0.997734 18.1278 3.03909L26.3826 11.7241C27.422 12.8176 29.1586 12.8603 30.251 11.8191L40.7991 1.76596ZM34.9665 22.9055C32.7206 21.0065 28.9888 21.7003 26.6311 24.4552C24.2734 27.2101 24.1827 30.9829 26.4286 32.882C28.6745 34.781 32.6088 35.0939 34.9665 32.339C37.3242 29.5841 37.2124 24.8046 34.9665 22.9055Z" fill="black"/>
</svg>
