<svg width="24" height="24" viewBox="0 0 24 24" fill="none" xmlns="http://www.w3.org/2000/svg">
<path fill-rule="evenodd" clip-rule="evenodd" d="M12.1748 15.4004C13.7775 15.4004 15.3618 15.9751 16.5898 17.002C16.7651 17.1385 16.8598 17.3288 16.8643 17.5332C16.8685 17.7305 16.7881 17.9064 16.6797 18.0342C16.5711 18.1621 16.4114 18.269 16.2188 18.2988C16.0196 18.3296 15.8154 18.2721 15.6494 18.124C14.6897 17.3218 13.4292 16.8701 12.1748 16.8701C10.9203 16.8702 9.65995 17.3225 8.7002 18.125L8.69922 18.124C8.5339 18.2716 8.33104 18.3331 8.12988 18.3037C7.93457 18.2751 7.77289 18.1668 7.66406 18.0371C7.55535 17.9074 7.47734 17.7296 7.4834 17.5322C7.48966 17.3286 7.58501 17.1386 7.75977 17.002C8.98784 15.975 10.5721 15.4004 12.1748 15.4004ZM15.9277 16.9668L15.9238 16.9639C15.9928 17.0123 16.0609 17.0621 16.1279 17.1133L15.9277 16.9668ZM12.8027 16.5312C12.7611 16.5266 12.7195 16.5213 12.6777 16.5176L12.6621 16.5166C12.7091 16.5206 12.7559 16.5261 12.8027 16.5312Z" fill="#FF0000"/>
<path fill-rule="evenodd" clip-rule="evenodd" d="M9.00977 8.2041C9.38091 8.24145 9.66971 8.55347 9.66992 8.93457V11.0947C9.66992 11.5013 9.34112 11.8301 8.93457 11.8301C8.52822 11.8298 8.2002 11.5011 8.2002 11.0947V8.93457C8.20043 8.52837 8.52837 8.20043 8.93457 8.2002L9.00977 8.2041Z" fill="#FF0000"/>
<path fill-rule="evenodd" clip-rule="evenodd" d="M15.4902 8.2041C15.8612 8.24167 16.1502 8.55363 16.1504 8.93457V11.0947C16.1504 11.5013 15.8216 11.8301 15.415 11.8301C15.0085 11.8301 14.6797 11.5013 14.6797 11.0947V8.93457C14.6799 8.52822 15.0086 8.2002 15.415 8.2002L15.4902 8.2041Z" fill="#FF0000"/>
<path fill-rule="evenodd" clip-rule="evenodd" d="M12.1748 1C18.342 1 23.3495 6.00763 23.3496 12.1748C23.3496 18.3421 18.3421 23.3496 12.1748 23.3496C6.00763 23.3495 1 18.342 1 12.1748C1.00011 6.00769 6.00769 1.00011 12.1748 1ZM12.1748 2.46973C6.81071 2.46983 2.46983 6.81071 2.46973 12.1748C2.46973 17.539 6.81064 21.8798 12.1748 21.8799C17.5391 21.8799 21.8799 17.5391 21.8799 12.1748C21.8798 6.81064 17.539 2.46973 12.1748 2.46973Z" fill="#FF0000"/>
</svg>
