<svg width="24" height="24" viewBox="0 0 24 24" fill="none" xmlns="http://www.w3.org/2000/svg">
<g clip-path="url(#clip0_2346_6906)">
<path fill-rule="evenodd" clip-rule="evenodd" d="M8.03906 15.2256C8.21433 15.2256 8.386 15.2896 8.5166 15.3994L8.7002 15.5469C9.63741 16.2624 10.8221 16.666 12.002 16.666C13.2596 16.666 14.5233 16.2068 15.4883 15.3994C15.6583 15.2567 15.8638 15.2029 16.0625 15.2373C16.2508 15.2701 16.4066 15.3766 16.5117 15.5039C16.6166 15.6311 16.6908 15.8026 16.6895 15.9912C16.6877 16.1905 16.6004 16.3837 16.4297 16.5264C15.1977 17.5578 13.6058 18.1348 11.999 18.1348C10.3921 18.1347 8.80379 17.5594 7.57129 16.5273C7.32063 16.3204 7.25937 15.9966 7.33887 15.7363C7.42434 15.4578 7.67759 15.2257 8.03906 15.2256Z" fill="#00CC4E"/>
<path fill-rule="evenodd" clip-rule="evenodd" d="M8.83398 8.0293C9.20511 8.06667 9.49392 8.37869 9.49414 8.75977V10.9199C9.49388 11.3262 9.16517 11.6553 8.75879 11.6553C8.3526 11.655 8.02468 11.3261 8.02441 10.9199V8.75977C8.02465 8.35356 8.35258 8.02562 8.75879 8.02539L8.83398 8.0293Z" fill="#00CC4E"/>
<path fill-rule="evenodd" clip-rule="evenodd" d="M15.3145 8.0293C15.6854 8.06689 15.9744 8.37884 15.9746 8.75977V10.9199C15.9743 11.3262 15.6456 11.6553 15.2393 11.6553C14.8329 11.6553 14.5042 11.3262 14.5039 10.9199V8.75977C14.5041 8.35342 14.8329 8.02539 15.2393 8.02539L15.3145 8.0293Z" fill="#00CC4E"/>
<path fill-rule="evenodd" clip-rule="evenodd" d="M11.999 0.824219C18.1662 0.824219 23.1737 5.83282 23.1738 12C23.1736 18.167 18.1661 23.1748 11.999 23.1748C5.83201 23.1747 0.824483 18.167 0.824219 12C0.824325 5.83289 5.83191 0.824325 11.999 0.824219ZM11.999 2.29492C6.63493 2.29503 2.29405 6.6359 2.29395 12C2.29421 17.364 6.63502 21.705 11.999 21.7051C17.3631 21.7051 21.7038 17.364 21.7041 12C21.704 6.63584 17.3632 2.29492 11.999 2.29492Z" fill="#00CC4E"/>
</g>
<defs>
<clipPath id="clip0_2346_6906">
<rect width="24" height="24" fill="white"/>
</clipPath>
</defs>
</svg>
