<svg width="56" height="60" viewBox="0 0 56 60" fill="none" xmlns="http://www.w3.org/2000/svg">
<path d="M37.1549 3.57504e-05C38.6866 0.614859 40.1731 1.36486 41.5898 2.24135C47.2713 5.72958 51.7532 11.3407 53.8956 17.7737C54.1159 18.4269 54.315 19.086 54.4932 19.7528C59.333 36.2037 48.1651 55.0162 31.6622 58.6927C25.7331 60.1928 19.3877 59.8918 13.689 57.86C12.1308 57.3084 10.6194 56.6336 9.17393 55.8448C9.33844 55.5251 9.50286 55.2048 9.66737 54.8851C11.0992 55.577 12.5823 56.1567 14.0983 56.616C19.6456 58.3075 25.6335 58.3324 31.1388 56.7395C46.4256 52.7209 56.1055 35.4246 51.7152 20.4972C51.5517 19.889 51.3696 19.2878 51.1689 18.6925C49.2069 12.8431 45.5352 7.57893 40.5986 3.65542C39.3661 2.67379 38.0571 1.77408 36.6813 0.968511C36.8391 0.645644 36.9972 0.322903 37.1549 3.57504e-05Z" fill="#F4FFF6"/>
<path d="M8.60285 28.3759L6.64373 32.6131L11.0397 34.5172L12.2351 32.2221L14.3626 33.3301L13.2463 35.4729L17.2407 37.2032L16.2885 39.4038L12.1356 37.6052L10.7564 40.2542L8.62897 39.1467L9.92938 36.6488L5.63773 34.7902L3.88833 38.5761L1.71256 37.5709L3.43755 33.8373L-0.000459025 32.3485L0.951768 30.1479L4.44354 31.6602L6.42694 27.3701L8.60285 28.3759Z" fill="#F4FFF6"/>
<path d="M42.7431 20.2923L43.9869 18.6167L45.9118 20.0463L44.7029 21.6747L48.1803 24.1268L46.7986 26.0853L43.2743 23.5994L39.251 29.0199L41.3746 30.3725L40.086 32.3953L37.8179 30.9508L35.3323 34.301L33.4074 32.8713L35.79 29.6601L33.5008 28.202L34.7894 26.1787L37.223 27.7286L41.314 22.2171L37.6156 19.6089L38.9973 17.6505L42.7431 20.2923Z" fill="#F4FFF6"/>
</svg>
