<svg width="228" height="208" viewBox="0 0 228 208" fill="none" xmlns="http://www.w3.org/2000/svg">
<path d="M61.6539 88.4869C107.959 100.275 42.2368 31.2503 42.2368 31.2503L84.2517 64.836C105.333 82.4445 102.263 74.1036 100.969 53.752L95.569 8.15548L113.174 52.9735C118.056 65.355 126.858 66.8008 131.518 49.3406L151.749 0L146.201 54.1598C143.945 72.732 149.049 67.3198 166.802 50.8976L215.289 8.56325L175.013 58.8306C163.362 75.1045 154.708 83.5936 170.316 85.1135L226.126 82.3332L177.897 94.0475C150.566 104.094 170.057 110.062 195.539 120.034L227.531 134.343L187.033 126.225C156.705 117.773 148.568 123.111 170.02 147.725L207.485 189.8L164.879 157.03C155.78 148.578 139.803 141.609 140.543 155.881L145.351 207.965L129.299 155.584C125.601 141.905 121.385 141.423 114.653 163.035L100.71 205.407L103.743 167.113C104.667 143.388 101.154 142.35 85.805 154.954L42.1258 189.837L74.7835 147.837C84.9174 136.011 88.7268 127.374 75.6711 126.558L21.3033 135.344L58.806 119.663C70.9371 114.214 86.6927 110.136 57.6965 98.8666L0 75.2157L61.6539 88.4869Z" fill="white" fill-opacity="0.05"/>
</svg>
