<svg width="42" height="34" viewBox="0 0 42 34" fill="none" xmlns="http://www.w3.org/2000/svg">
<path fill-rule="evenodd" clip-rule="evenodd" d="M28.0435 0.840205C27.7139 1.55413 27.3827 2.27384 27.0581 2.99504C28.0009 2.83798 28.9364 2.68829 29.8653 2.52935C30.171 2.47979 30.4728 2.43325 30.7787 2.38358C30.6482 2.6647 30.5218 2.94286 30.3916 3.22379C30.0171 4.03496 29.6407 4.85357 29.274 5.67343C32.2466 8.07087 34.3248 11.5323 34.9305 15.4791C38.1413 14.9814 41.0129 15.6328 41.4305 16.8205C41.9568 18.3184 39.2038 21.5432 35.1129 22.9803C34.8586 23.0697 34.6059 23.1525 34.3557 23.2287C34.009 24.1094 33.5508 24.9509 32.9957 25.745C32.883 25.9387 32.766 26.1299 32.6452 26.3182C32.9485 26.7827 33.175 27.3249 33.2938 27.9211C33.7214 30.0664 33.7043 32.2136 31.8929 32.5747C30.6772 32.817 28.9619 32.1931 27.836 31.1083C25.4103 32.6496 22.5322 33.5427 19.4454 33.5427C16.371 33.5427 13.5034 32.6568 11.0838 31.1269C9.98241 32.3228 8.22281 33.0662 6.96466 32.8155C5.15315 32.4544 5.06852 30.1701 5.49608 28.0248C5.6259 27.3736 5.88424 26.7867 6.23091 26.2953C4.909 24.225 4.06011 21.8235 3.83696 19.2428C3.83522 19.2413 3.83324 19.2394 3.8315 19.2379C0.648851 16.4649 -0.680167 12.557 0.334739 11.3911C0.977063 10.6539 2.90924 10.7874 5.04786 11.687C7.11015 6.89528 11.4944 3.33851 16.784 2.43326C20.4926 1.19715 24.0494 0.739137 27.5172 0.145767C27.823 0.0961971 28.1252 0.0496765 28.4311 0C28.3006 0.281121 28.1737 0.559272 28.0435 0.840205ZM18.5829 3.11296C10.8175 3.55964 4.65805 9.998 4.65805 17.8752C4.65806 21.83 6.21069 25.4223 8.73952 28.0756C7.19082 25.9431 6.59451 23.1919 6.59451 19.2799C6.59454 12.3426 11.9629 4.86912 18.5829 3.11296ZM10.8567 13.5989C10.9379 13.7308 11.0277 13.8855 11.1062 14.0291C11.4074 14.5868 11.7097 15.146 12.0174 15.7024C11.1226 16.5918 11.213 18.1429 12.2232 19.1762C12.9238 19.8928 13.8836 20.1727 14.7094 19.9853C15.1552 20.6075 15.6138 21.2216 16.0743 21.8328C16.1753 21.9686 16.2787 22.1117 16.3723 22.2439C16.5538 22.1647 16.7358 22.0856 16.9172 22.0064C16.8779 21.834 16.826 21.6537 16.7741 21.4834C16.5293 20.708 16.2273 19.9654 15.881 19.2499C16.5936 18.3423 16.453 16.9271 15.5103 15.9628C14.8656 15.3034 14.0012 15.0138 13.2239 15.1177C12.7626 14.5638 12.2631 14.0342 11.7133 13.5355C11.5809 13.4201 11.4336 13.2946 11.2847 13.1872C11.1422 13.3245 10.9992 13.4617 10.8567 13.5989ZM27.675 16.0425C26.7674 15.1552 25.2088 15.2772 24.194 16.3149C23.1793 17.3529 23.0926 18.9134 24.0002 19.8008C24.9079 20.6882 26.4664 20.5663 27.4812 19.5284C28.4955 18.4905 28.5824 16.9299 27.675 16.0425ZM26.4783 9.83952C26.8091 10.2035 27.2128 10.7498 27.6111 11.3447C27.1325 11.705 26.6593 12.0603 26.1796 12.4251L26.9254 13.4062C27.373 13.0658 27.8201 12.73 28.2744 12.388C28.6163 12.9549 28.9144 13.4977 29.1037 13.9079L30.2223 13.3914C30.004 12.9183 29.6575 12.2899 29.2615 11.64C29.8618 11.1841 30.4852 10.7066 31.1461 10.1829L30.3807 9.21714C29.7543 9.71352 29.1646 10.1657 28.5949 10.5989C28.1776 9.97978 27.752 9.40838 27.39 9.01023L26.4783 9.83952Z" fill="#F4FFF6"/>
</svg>
