<svg width="30" height="30" viewBox="0 0 30 30" fill="none" xmlns="http://www.w3.org/2000/svg">
<path d="M16.9877 12.3634C21.6784 16.9767 22.6287 23.5215 19.1107 26.9815C15.5926 30.4414 8.93818 29.5065 4.24744 24.8932C-0.443297 20.2799 -1.39416 13.7351 2.12383 10.2751C5.64191 6.81511 12.2969 7.75004 16.9877 12.3634Z" fill="#D89453"/>
<path d="M14.2328 0.389894C15.6491 1.23842 16.0104 3.19647 15.0398 4.76354C14.0692 6.33061 12.1343 6.91326 10.7179 6.06476C9.30157 5.21627 8.94006 3.25792 9.91061 1.69083C10.8812 0.123727 12.8164 -0.458604 14.2328 0.389894Z" fill="#D89453"/>
<path d="M24.7859 14.1557C26.3792 13.2012 28.3702 13.5565 29.233 14.9493C30.0957 16.3423 29.5035 18.2456 27.9102 19.2001C26.3168 20.1547 24.3256 19.7992 23.4628 18.4062C22.6001 17.0132 23.1925 15.1102 24.7859 14.1557Z" fill="#D89453"/>
<path d="M23.8884 5.57485C25.0611 6.72818 24.942 8.71517 23.6227 10.0127C22.3034 11.3101 20.2833 11.427 19.1107 10.2737C17.938 9.12036 18.0569 7.13363 19.3761 5.83614C20.6953 4.53865 22.7157 4.42154 23.8884 5.57485Z" fill="#D89453"/>
</svg>
