<svg width="67" height="56" viewBox="0 0 67 56" fill="none" xmlns="http://www.w3.org/2000/svg">
<path fill-rule="evenodd" clip-rule="evenodd" d="M48.5961 -2.51392e-05C53.9027 0.301592 59.6008 4.05168 63.126 10.1575C67.4786 17.6964 67.0651 26.3078 62.5162 30.7839C62.7388 28.5197 62.2821 26.1671 61.0578 24.0465C58.4901 19.5991 53.3522 17.5609 48.6034 18.7243C48.9482 19.2047 49.2731 19.7062 49.575 20.2292C54.515 28.7855 51.5834 39.7266 43.027 44.6666C34.4706 49.6066 23.5296 46.675 18.5896 38.1186C18.2848 37.5907 18.01 37.0536 17.7646 36.5095C14.3488 40.0389 13.5287 45.5335 16.1066 49.9985C17.3311 52.1194 19.1406 53.6916 21.2131 54.6308C15.0622 56.3327 7.39721 52.3847 3.04448 44.8456C-0.480692 38.7397 -0.879307 31.93 1.51278 27.1835C4.97162 31.2707 10.9617 32.4272 15.7624 29.6557C15.9083 29.5714 16.0514 29.484 16.1921 29.3943C16.1208 23.1403 19.3354 17.031 25.1376 13.6812C30.9409 10.3306 37.8404 10.6022 43.2213 13.7928C43.3525 13.7237 43.4829 13.6518 43.6125 13.577C48.4132 10.8052 50.4065 5.0391 48.5961 -2.51392e-05ZM24.453 20.1528C22.6784 19.6197 20.5917 21.3445 19.7922 24.0056C18.9927 26.6669 19.7831 29.257 21.5578 29.7901C23.3324 30.3233 25.4193 28.5978 26.2188 25.9366C27.0183 23.2754 26.2277 20.686 24.453 20.1528Z" fill="#F4FFF6"/>
</svg>
