<svg width="63" height="64" viewBox="0 0 63 64" fill="none" xmlns="http://www.w3.org/2000/svg">
<path d="M36.2473 55.2525C36.4642 56.2263 36.6752 57.6337 36.823 58.7889C35.3719 58.8143 33.9745 58.6934 32.6616 58.4814C32.6148 57.5323 32.4837 56.7954 32.2584 55.8296C33.5523 55.684 34.9005 55.4956 36.2473 55.2525Z" fill="#F4FFF6"/>
<path d="M40.8113 54.1742C41.2398 55.4612 41.4518 56.2769 41.7576 58.1064C40.5523 58.4294 39.3589 58.6257 38.1925 58.7212C38.0456 57.5573 37.8263 56.0687 37.5893 54.9916C38.6871 54.7612 39.7713 54.4908 40.8113 54.1742Z" fill="#F4FFF6"/>
<path d="M30.887 55.9701C31.0973 56.8542 31.2192 57.4831 31.2758 58.2193C30.5051 58.0518 29.771 57.8569 29.081 57.6469C27.6757 57.219 26.1158 56.5485 25.1546 56.1119C26.1794 56.0834 27.7807 56.2118 29.176 56.1119C29.7259 56.0726 30.2981 56.0251 30.887 55.9701Z" fill="#F4FFF6"/>
<path d="M45.0968 52.9696C45.2453 53.4184 45.4529 53.9461 45.6314 54.4571C45.8166 54.9876 45.9967 55.568 46.127 56.2035C45.1897 56.7233 44.1718 57.218 43.0697 57.6688C42.7751 55.9419 42.5516 55.0791 42.1314 53.8097C43.0523 53.5822 44.0596 53.2925 45.0968 52.9696Z" fill="#F4FFF6"/>
<path d="M49.5329 51.47C49.6645 51.664 49.8122 51.9729 49.969 52.3789C50.0649 52.6274 50.1543 52.8845 50.2416 53.1355C50.2665 53.2071 50.2919 53.2788 50.3169 53.3499C49.4592 54.0591 48.4776 54.7813 47.3643 55.4758C47.2326 54.9371 47.0757 54.4457 46.9216 54.0043C46.7102 53.3989 46.5292 52.9472 46.3988 52.5526C47.4564 52.2046 48.5205 51.8345 49.5329 51.47Z" fill="#F4FFF6"/>
<path d="M53.7904 49.8695C53.3688 50.388 52.8413 50.9886 52.2009 51.6329C51.9588 51.8765 51.7004 52.1261 51.4258 52.3802C51.3686 52.2185 51.3081 52.0506 51.244 51.8845C51.135 51.6022 51.0022 51.2852 50.8405 50.9922C51.9519 50.5807 52.9647 50.1919 53.7904 49.8695Z" fill="#F4FFF6"/>
<path fill-rule="evenodd" clip-rule="evenodd" d="M31.9901 0C31.8019 0.241038 31.6499 0.503685 31.5297 0.766794C30.6524 3.43479 30.5766 6.23678 30.7973 9.0736C32.2775 7.23915 33.8492 5.6421 35.4214 3.95575C35.5995 3.77257 35.7742 3.60281 35.9546 3.42582C35.9799 3.67738 36.0128 3.91699 36.0425 4.16852C36.3342 6.2397 36.657 8.425 37.1087 10.4568C40.7347 11.0308 44.1404 12.1329 47.2097 13.665C47.9774 10.16 51.0933 7.5368 54.8206 7.5368C59.1242 7.5368 62.613 11.0338 62.613 15.3477C62.613 18.5575 60.6812 21.3147 57.9195 22.5159C60.8946 26.5623 62.613 31.3369 62.613 36.4507C62.613 51.0571 48.5966 63.1721 31.3065 63.1721C14.0164 63.1721 0 51.0571 0 36.4507C0 31.4083 1.67048 26.6955 4.56936 22.6856C2.57348 21.954 0.959811 20.4276 0.109208 18.4887C1.73079 18.3629 3.00761 17.0053 3.00761 15.3477C3.00761 13.6901 1.73094 12.3323 0.109475 12.2063C1.31583 9.45686 4.05684 7.5368 7.24561 7.5368C11.0621 7.5368 14.2372 10.2871 14.9072 13.9182C16.7784 12.9442 18.7804 12.1327 20.8853 11.5051C23.6731 7.30435 26.5666 2.92527 31.0812 0.286912C31.3771 0.158637 31.6891 0.0527254 31.9901 0ZM57.2661 46.9861C53.6896 48.8567 50.9123 49.8695 47.7117 50.9922C46.1662 51.5181 43.3369 52.4476 41.2863 52.9696C31.5799 55.4403 27.2359 55.0436 20.3179 54.8976C21.5672 55.6924 22.7933 56.5052 24.1236 57.1598C25.2181 57.6983 26.7856 58.3801 28.6837 58.958C31.1383 59.7054 34.1661 60.284 37.4491 60.1407C37.5209 60.1565 37.5963 60.1614 37.6734 60.1525C37.7209 60.147 37.7667 60.1367 37.8104 60.1223C39.4849 60.0224 41.2221 59.7317 42.9805 59.1775L43.0013 59.1711L43.0214 59.1633C44.496 58.5938 45.8336 57.9473 47.0409 57.262C47.1811 57.2306 47.3026 57.1581 47.3942 57.0583C48.976 56.1313 50.3254 55.1409 51.4592 54.1788C51.5424 54.1329 51.6128 54.0714 51.6685 53.9994C52.2216 53.5206 52.7215 53.0506 53.1694 52.5999C54.2371 51.5256 55.0125 50.5629 55.5233 49.8644C55.7788 49.515 55.9685 49.2312 56.0955 49.0325C56.159 48.9333 56.207 48.8551 56.2397 48.8005C56.2561 48.7733 56.2685 48.7517 56.2774 48.7365C56.2818 48.7289 56.2855 48.7228 56.2881 48.7183C56.2893 48.7162 56.2905 48.7144 56.2913 48.713L56.2926 48.7103L56.2931 48.7098L57.2661 46.9861ZM10.721 36.4512C8.74956 41.2468 9.31016 51.9366 16.2751 51.9367C20.2019 51.9366 24.2206 48.1298 25.6779 44.3991C17.037 41.356 12.9506 38.7065 10.721 36.4512ZM54.7418 33.2623C54.2966 35.3252 53.6317 37.3469 52.5539 39.0318C52.5087 39.0143 52.4635 38.9968 52.4183 38.9796C51.0459 38.4648 49.6351 38.0881 48.2201 37.9725C48.1416 37.9666 48.0628 37.9617 47.9851 37.9581C48.0568 37.9884 48.1287 38.02 48.1998 38.0523C49.4725 38.6413 50.6055 39.4459 51.6303 40.3275C51.6685 40.3606 51.7064 40.3942 51.7443 40.4276C50.8922 42.1142 49.5844 43.6331 48.1141 44.9799C48.0254 45.0612 47.9382 45.1404 47.8484 45.2208C47.954 45.1628 48.0571 45.1056 48.1621 45.0463C49.9618 44.0314 51.7098 42.7769 53.0957 41.0662C54.1344 41.5839 55.1243 42.222 55.7917 43.2036C55.8368 43.279 55.8782 43.3585 55.914 43.4396C55.9047 43.3514 55.8886 43.2615 55.8678 43.1731C55.4992 41.9351 54.6505 40.9272 53.7127 40.0275C54.6012 37.8169 54.8244 35.5047 54.8235 33.2711C54.8235 33.1423 54.8223 33.0165 54.8208 32.8878C54.7951 33.0139 54.7689 33.1367 54.7418 33.2623Z" fill="#F4FFF6"/>
</svg>
