<svg width="33" height="32" viewBox="0 0 33 32" fill="none" xmlns="http://www.w3.org/2000/svg">
<path fill-rule="evenodd" clip-rule="evenodd" d="M20.7194 0.733489C21.128 0.0322724 22.0327 -0.208253 22.7404 0.196593L25.3215 1.67342C26.0292 2.07826 26.2719 2.97518 25.8633 3.6764L25.5307 4.24658C25.8253 4.43095 26.1131 4.62695 26.3936 4.83394C30.0509 7.50309 32.4246 11.7994 32.4246 16.6457C32.4246 21.4893 30.0533 25.7836 26.3994 28.4531C25.9601 28.7776 25.503 29.0753 25.0297 29.3433C24.9973 29.3618 24.9647 29.38 24.9322 29.3984C24.906 29.4129 24.88 29.4274 24.8538 29.4417C22.7171 30.6288 20.2535 31.3065 17.6297 31.3065C9.45871 31.3065 2.83481 24.7426 2.83481 16.6457C2.83482 15.3981 2.99217 14.1869 3.28812 13.0306L0.839524 11.8659C0.102925 11.5155 -0.207502 10.6397 0.146013 9.90976L1.74651 6.60534C2.10009 5.8754 2.98386 5.56776 3.72048 5.91812L6.34426 7.16622C9.05809 3.99689 13.1066 1.98482 17.6297 1.98482C18.3985 1.98482 19.1537 2.0428 19.8908 2.15483L20.7194 0.733489ZM15.7897 2.83669C8.89675 3.72973 3.57463 9.57157 3.57456 16.6457C3.57456 23.7198 8.89672 29.5616 15.7897 30.4546C10.0419 28.7489 5.79379 22.7973 5.79379 16.6457C5.79386 10.4941 10.0419 4.54237 15.7897 2.83669ZM25.2117 22.8772C25.262 22.9266 25.3028 22.9832 25.3418 23.0387C25.6058 23.4433 25.8607 23.828 26.1584 24.1697C24.1531 25.692 21.7101 26.5365 19.2548 26.827C18.9522 26.8609 18.6503 26.8989 18.3471 26.9387C18.2224 26.5844 18.0614 26.2281 17.8901 25.828C17.8639 25.7625 17.8384 25.695 17.8146 25.6258C17.7659 25.6806 17.7211 25.7416 17.6806 25.8051C17.4358 26.2009 17.3306 26.6441 17.3357 27.0779C17.1673 27.1018 16.9974 27.125 16.826 27.1495C16.6178 27.1792 16.4058 27.2089 16.1921 27.2383C16.1264 27.247 16.061 27.27 16.009 27.312C15.9571 27.354 15.9227 27.4112 15.9129 27.4738C15.9032 27.5365 15.9186 27.6015 15.9555 27.657C15.9925 27.7127 16.0482 27.7538 16.1083 27.7816C16.3143 27.8746 16.5273 27.9562 16.7429 28.0254C17.0322 28.118 17.3278 28.1884 17.6265 28.238C17.8278 28.6234 18.1329 28.9661 18.5363 29.1951C18.6017 29.2312 18.6704 29.2642 18.7393 29.291C18.7281 29.2185 18.7184 29.1466 18.7104 29.077C18.6837 28.8104 18.6624 28.562 18.6378 28.3246C18.9 28.3265 19.1622 28.3132 19.422 28.2838C22.1809 27.9677 24.8823 26.7532 26.7692 24.7614C27.0917 25.0253 27.4488 25.2577 27.8229 25.4973C27.8788 25.5359 27.936 25.5763 27.9858 25.6261C27.9941 25.5555 27.9846 25.4785 27.9728 25.4064C27.8679 24.9002 27.6374 24.4688 27.3417 24.1006C27.3807 24.0514 27.4204 24.0025 27.4584 23.9525C27.5908 23.7768 27.7167 23.5964 27.8351 23.4123C27.8728 23.3534 27.8904 23.2822 27.8803 23.2123C27.8702 23.1423 27.8337 23.0792 27.7784 23.0365C27.7231 22.994 27.6524 22.9746 27.5816 22.9821C27.5108 22.9897 27.4457 23.024 27.3974 23.0745C27.2543 23.2236 27.1065 23.3685 26.9553 23.5079C26.9216 23.5385 26.887 23.5683 26.853 23.5985C26.4599 23.2657 25.9917 23.0037 25.4335 22.8901C25.3608 22.8784 25.283 22.8689 25.2117 22.8772Z" fill="#F4FFF6"/>
</svg>
