<svg width="143" height="159" viewBox="0 0 143 159" fill="none" xmlns="http://www.w3.org/2000/svg">
<path fill-rule="evenodd" clip-rule="evenodd" d="M0 125.749C32.9 114.168 40.0485 122.129 29.65 158.769C48.8636 122.129 93.6931 122.129 112.907 158.769C102.515 122.129 109.664 114.168 142.556 125.749C109.664 104.351 109.664 54.4262 142.556 33.0286C109.664 44.6007 102.515 36.6396 112.907 0C93.6931 36.6396 48.8636 36.6396 29.65 0C40.0485 36.6396 32.9 44.6007 0 33.0286C32.9 54.4262 32.9 104.351 0 125.749ZM71.2782 108.757C85.8439 108.757 97.6512 95.6066 97.6512 79.3844C97.6512 63.1626 85.8439 50.0121 71.2782 50.0121C56.7129 50.0121 44.9053 63.1626 44.9053 79.3844C44.9053 95.6066 56.7129 108.757 71.2782 108.757Z" fill="white" fill-opacity="0.05"/>
</svg>
