<svg width="24" height="24" viewBox="0 0 24 24" fill="none" xmlns="http://www.w3.org/2000/svg">
<path d="M21.5922 11.1004C22.0892 11.1004 22.4922 11.5034 22.4922 12.0004C22.4922 12.4974 22.0892 12.9004 21.5922 12.9004H10.4922V19.2004C10.4922 19.5645 10.2729 19.8925 9.93659 20.0319C9.60035 20.1712 9.21323 20.0943 8.95583 19.8369L1.75583 12.6369C1.58699 12.468 1.49219 12.2391 1.49219 12.0004C1.49219 11.7617 1.58699 11.5327 1.75583 11.364L8.95583 4.16402C9.21323 3.90662 9.60035 3.82963 9.93659 3.96892C10.2729 4.10823 10.4922 4.43641 10.4922 4.80041V11.1004H21.5922Z" fill="#F4FFF6"/>
</svg>
