<svg width="24" height="24" viewBox="0 0 24 24" fill="none" xmlns="http://www.w3.org/2000/svg">
<path d="M2.39219 11.1004C1.89514 11.1004 1.49219 11.5034 1.49219 12.0004C1.49219 12.4974 1.89514 12.9004 2.39219 12.9004H13.4922V19.2004C13.4922 19.5645 13.7114 19.8925 14.0478 20.0319C14.384 20.1712 14.7711 20.0943 15.0285 19.8369L22.2285 12.6369C22.3974 12.468 22.4922 12.2391 22.4922 12.0004C22.4922 11.7617 22.3974 11.5327 22.2285 11.364L15.0285 4.16402C14.7711 3.90662 14.384 3.82963 14.0478 3.96892C13.7114 4.10823 13.4922 4.43641 13.4922 4.80041V11.1004H2.39219Z" fill="#F4FFF6"/>
</svg>
