<svg width="24" height="24" viewBox="0 0 24 24" fill="none" xmlns="http://www.w3.org/2000/svg">
<path d="M19.1992 7.56006C20.1891 7.56006 20.9999 8.36999 21 9.35986V18.9595C21 19.9494 20.1892 20.7603 19.1992 20.7603H4.7998C3.8099 20.7602 3 19.9494 3 18.9595V9.35986C3.00012 8.37004 3.80997 7.56014 4.7998 7.56006H19.1992ZM14.1035 2.76025C15.0934 2.76025 15.9032 3.57015 15.9033 4.56006V5.46045C15.9032 5.6403 15.7834 5.76025 15.6035 5.76025H14.4033C14.2236 5.76009 14.1036 5.64017 14.1035 5.46045V4.56006H9.9043V5.46045C9.90418 5.6403 9.78342 5.76025 9.60352 5.76025H8.4043C8.22439 5.76025 8.10363 5.6403 8.10352 5.46045V4.56006C8.1036 3.57015 8.91437 2.76025 9.9043 2.76025H14.1035Z" fill="#F4FFF6"/>
</svg>
