<svg width="24" height="24" viewBox="0 0 24 24" fill="none" xmlns="http://www.w3.org/2000/svg">
<g clip-path="url(#clip0_1714_11554)">
<path fill-rule="evenodd" clip-rule="evenodd" d="M19.7753 4.4296C20.8632 3.97153 22.0295 4.89146 21.8374 6.05615L19.5685 19.8129C19.3497 21.1393 17.8929 21.9004 16.676 21.2394C15.6577 20.6863 14.1469 19.835 12.7853 18.9453C12.1054 18.501 10.0235 17.0764 10.2794 16.0623C10.4982 15.1952 13.9981 11.9373 15.9981 9.99976C16.7837 9.23869 16.4259 8.79902 15.4981 9.49976C13.1965 11.2381 9.50136 13.881 8.2794 14.6248C7.20127 15.281 6.63835 15.393 5.9669 15.281C4.74077 15.0767 3.604 14.7603 2.67592 14.3756C1.42155 13.8556 1.48265 12.1318 2.67507 11.6298L19.7753 4.4296Z" fill="#F4FFF6"/>
</g>
<defs>
<clipPath id="clip0_1714_11554">
<rect width="24" height="24" fill="white"/>
</clipPath>
</defs>
</svg>
